<svg xmlns="http://www.w3.org/2000/svg" viewBox="0 0 512.001 512.001" width="512" height="512" fill="#e3e9ed"><path d="M373.406 0H138.594C62.172 0 0 62.172 0 138.594V373.4C0 449.828 62.172 512 138.594 512H373.4c76.418 0 138.6-62.172 138.6-138.6V138.594C512 62.172 449.828 0 373.406 0zm108.578 373.4c0 59.867-48.707 108.574-108.578 108.574H138.594c-59.87 0-108.578-48.707-108.578-108.574V138.594c0-59.87 48.707-108.578 108.578-108.578H373.4c59.867 0 108.574 48.707 108.574 108.578zM256 116.004c-77.195 0-139.996 62.8-139.996 139.996S178.805 395.996 256 395.996 395.996 333.195 395.996 256 333.195 116.004 256 116.004zm0 249.977c-60.64 0-109.98-49.336-109.98-109.98S195.36 146.02 256 146.02 365.98 195.36 365.98 256 316.645 365.98 256 365.98zm0 0"/><path d="M399.344 66.285c-22.812 0-41.367 18.56-41.367 41.367s18.555 41.37 41.367 41.37 41.37-18.56 41.37-41.37-18.56-41.367-41.37-41.367zm0 52.72a11.37 11.37 0 0 1-11.352-11.352c0-6.262 5.094-11.352 11.352-11.352s11.355 5.1 11.355 11.352a11.37 11.37 0 0 1-11.355 11.352zm0 0"/></svg>